<svg xmlns="http://www.w3.org/2000/svg" viewBox="0 0 703.38 899.72"><defs><style>.cls-1{fill:#fff;}</style></defs><g id="Laag_2" data-name="Laag 2"><g id="Laag_2-2" data-name="Laag 2"><path class="cls-1" d="M488.14,458.16q39.38,0,78.64-1.85l136.6-6.45-136.6-6.45q-39.22-1.85-78.64-1.85H451a99.31,99.31,0,0,0-23.18-54.4q19.33-19.4,37.36-40l64.29-73.46L456,338.06q-20.56,18-40,37.4A99.43,99.43,0,0,0,360,352.26V266.07Q360,225,358.48,184L351.69,0,344.9,184q-1.5,41-1.51,82.12v86.19a99.34,99.34,0,0,0-55.12,22.4q-19.61-19.57-40.43-37.84l-73.41-64.34,64.29,73.45q18.15,20.74,37.66,40.3a99.42,99.42,0,0,0-24,55.33H208q-32.14,0-64.2,1.51L0,449.86l143.81,6.79q32,1.5,64.2,1.51h44.1a99.41,99.41,0,0,0,23.36,58l-1.58,1.58q-16.2,16.21-31.29,33.46l-67.69,77.33,77.29-67.74q17.21-15.07,33.43-31.31l1.58-1.58a99.23,99.23,0,0,0,56.18,23.29V624.4q0,50.37,1.85,100.58l6.45,174.74L358.14,725Q360,674.82,360,624.4V551.15a99.28,99.28,0,0,0,57.12-24.09l1.13,1.13q16.2,16.23,33.43,31.32L529,627.24l-67.68-77.33Q446.2,532.69,430,516.46l-1.28-1.28a99.39,99.39,0,0,0,22.57-57Z"/></g></g></svg>